<svg width="1291" height="867" viewBox="0 0 1291 867" fill="none" xmlns="http://www.w3.org/2000/svg">
<rect width="1291" height="867" fill="#F5F5F5"/>
<rect width="1291" height="867" fill="white"/>
<path d="M926 306.182L546.286 604.215H580.301L850.335 410.769L762.869 604.215L806.602 620.729L926 306.182Z" fill="white"/>
<path d="M926 306.182L546.286 604.215H580.301L850.335 410.769L762.869 604.215L806.602 620.729L926 306.182Z" fill="#F5F5F5"/>
<path d="M546.286 604.215L682.345 259L365.361 577.261C379.714 564.284 379.52 568.509 336.646 620.729C262.785 710.689 468.307 518.239 580.301 410.769L521.99 604.215H546.286Z" fill="white"/>
<path d="M546.286 604.215L682.345 259L365.361 577.261C379.714 564.284 379.52 568.509 336.646 620.729C262.785 710.689 468.307 518.239 580.301 410.769L521.99 604.215H546.286Z" fill="#F5F5F5"/>
<path d="M546.286 604.215L682.345 259L365.361 577.261M546.286 604.215L926 306.182L806.602 620.729L762.869 604.215L850.335 410.769L580.301 604.215M546.286 604.215H521.99M546.286 604.215H580.301M521.99 604.215L580.301 410.769C468.307 518.239 262.785 710.689 336.646 620.729C379.52 568.509 379.714 564.284 365.361 577.261M521.99 604.215H580.301M365.361 577.261C354.988 586.64 337.017 605.004 322.068 620.729L365.361 577.261Z" stroke="#124768" stroke-width="18"/>
<path d="M546.286 604.215L682.345 259L365.361 577.261M546.286 604.215L926 306.182L806.602 620.729L762.869 604.215L850.335 410.769L580.301 604.215M546.286 604.215H521.99M546.286 604.215H580.301M521.99 604.215L580.301 410.769C468.307 518.239 262.785 710.689 336.646 620.729C379.52 568.509 379.714 564.284 365.361 577.261M521.99 604.215H580.301M365.361 577.261C354.988 586.64 337.017 605.004 322.068 620.729L365.361 577.261Z" stroke="black" stroke-opacity="0.54" stroke-width="18"/>
<path d="M236.5 696L317 617L341.5 643.5L236.5 696Z" fill="#082130" stroke="black"/>
</svg>
